Coordinates
version=1
nRows=16
nColumns=40
inDegrees=yes

Units are S.I. units (second, meters, Newtons, ...)
If the header above contains a line with 'inDegrees', this indicates whether rotational values are in degrees (yes) or radians (no).

endheader
time	pelvis_tilt	pelvis_list	pelvis_rotation	pelvis_tx	pelvis_ty	pelvis_tz	hip_flexion_r	hip_adduction_r	hip_rotation_r	knee_angle_r	knee_angle_r_beta	ankle_angle_r	subtalar_angle_r	mtp_angle_r	hip_flexion_l	hip_adduction_l	hip_rotation_l	knee_angle_l	knee_angle_l_beta	ankle_angle_l	subtalar_angle_l	mtp_angle_l	lumbar_extension	lumbar_bending	lumbar_rotation	arm_flex_r	arm_add_r	arm_rot_r	elbow_flex_r	pro_sup_r	wrist_flex_r	wrist_dev_r	arm_flex_l	arm_add_l	arm_rot_l	elbow_flex_l	pro_sup_l	wrist_flex_l	wrist_dev_l
      4.25000000	    -45.11076302	     -9.18913662	      2.10955154	     -0.42104547	      0.61571039	     -0.88130392	    102.38524665	    -22.08537235	    -11.18191727	     91.58841469	      1.59851939	     30.42070874	      0.00000000	      0.00000000	    112.30278847	    -19.39417616	     10.24068534	     90.45954051	      1.57881682	     28.02099827	      0.00000000	      0.00000000	    -10.54840883	      9.05262910	     -8.02476386	    -33.58380962	    -42.65132932	      9.54555084	    119.10376923	     87.89946682	      0.00000000	      0.00000000	    -48.92342648	    -34.19792012	     -0.63107005	    116.28869299	     88.06985242	      0.00000000	      0.00000000
      4.25500000	    -45.11896325	     -9.23751804	      2.09439685	     -0.42103673	      0.61572385	     -0.88128892	    102.36234124	    -22.07410747	    -11.24316470	     91.58020586	      1.59837612	     30.37077282	      0.00000000	      0.00000000	    112.35419135	    -19.38552112	     10.30113045	     90.46782405	      1.57896140	     27.91201555	      0.00000000	      0.00000000	    -10.54233743	      9.09695114	     -8.06976690	    -33.46605601	    -42.70107061	      9.66503370	    119.06708340	     87.92273324	      0.00000000	      0.00000000	    -48.98810158	    -34.10706121	     -0.73397906	    116.30773999	     88.04277285	      0.00000000	      0.00000000
      4.26000000	    -45.26880298	     -9.27225392	      2.32639496	     -0.42158588	      0.61547964	     -0.88184437	    102.58051171	    -22.35207186	    -11.15641847	     91.61355484	      1.59895817	     30.32436941	      0.00000000	      0.00000000	    112.47182663	    -19.04533305	     10.26196209	     90.37231882	      1.57729452	     27.85142504	      0.00000000	      0.00000000	    -10.34435647	      9.19190837	     -8.28978318	    -33.57079020	    -42.73963986	      9.54686258	    119.12302915	     87.91661339	      0.00000000	      0.00000000	    -49.01088073	    -34.12875959	     -0.70021560	    116.35619958	     88.06457355	      0.00000000	      0.00000000
      4.26500000	    -45.24933061	     -9.20542710	      2.07328735	     -0.42139268	      0.61558248	     -0.88127760	    102.53864045	    -22.04587013	    -11.15984234	     91.55190046	      1.59788210	     30.31829207	      0.00000000	      0.00000000	    112.45720059	    -19.32539738	     10.32063653	     90.42379852	      1.57819301	     27.89423532	      0.00000000	      0.00000000	    -10.40762173	      9.05089839	     -8.09602742	    -33.48977660	    -42.68977274	      9.66178671	    119.06889378	     87.92604228	      0.00000000	      0.00000000	    -49.07805373	    -34.09914004	     -0.80782294	    116.34857610	     88.05816663	      0.00000000	      0.00000000
      4.27000000	    -45.47867799	     -9.25256823	      2.36083118	     -0.42214444	      0.61516809	     -0.88202669	    102.85349538	    -22.40129668	    -11.08032681	     91.56112911	      1.59804317	     30.28342541	      0.00000000	      0.00000000	    112.64332683	    -18.85287871	     10.30739848	     90.29134452	      1.57588125	     27.87595550	      0.00000000	      0.00000000	    -10.12444494	      9.17841973	     -8.35500621	    -33.71525205	    -42.69417088	      9.42719023	    119.17416377	     87.91085876	      0.00000000	      0.00000000	    -49.06284955	    -34.13971753	     -0.74985148	    116.43257821	     88.07494687	      0.00000000	      0.00000000
      4.27500000	    -45.54787779	     -9.31278932	      2.39930259	     -0.42231520	      0.61509368	     -0.88212263	    102.88978260	    -22.43436556	    -11.10322119	     91.53389281	      1.59756781	     30.32966480	      0.00000000	      0.00000000	    112.74320169	    -18.76391076	     10.36971982	     90.29635175	      1.57596864	     27.78313000	      0.00000000	      0.00000000	    -10.03786957	      9.27234145	     -8.10953458	    -34.24320402	    -42.46277216	      8.88276360	    119.30399768	     87.93152021	      0.00000000	      0.00000000	    -48.70636879	    -34.49241504	     -0.29214492	    116.36028111	     88.04299102	      0.00000000	      0.00000000
      4.28000000	    -45.54757893	     -9.30722602	      2.43061944	     -0.42234326	      0.61511338	     -0.88220734	    102.89861374	    -22.47282961	    -11.09333224	     91.53272850	      1.59754749	     30.36483452	      0.00000000	      0.00000000	    112.72428070	    -18.71417414	     10.35140349	     90.28453598	      1.57576242	     27.80733429	      0.00000000	      0.00000000	    -10.01946672	      9.22571753	     -8.68952587	    -33.21468162	    -42.96919574	      9.97054640	    119.07030394	     87.90695348	      0.00000000	      0.00000000	    -49.36459364	    -33.87272830	     -1.01317054	    116.47774088	     88.06116317	      0.00000000	      0.00000000
      4.28500000	    -45.46809418	     -9.29160160	      2.19104203	     -0.42197500	      0.61525435	     -0.88162694	    102.77558591	    -22.15593052	    -11.13477724	     91.51458446	      1.59723081	     30.30571302	      0.00000000	      0.00000000	    112.67847610	    -19.02825513	     10.41506495	     90.31523162	      1.57629816	     27.84305883	      0.00000000	      0.00000000	    -10.13983276	      9.16001977	     -8.37020421	    -33.34677312	    -42.83432476	      9.81347634	    119.07073976	     87.90458841	      0.00000000	      0.00000000	    -49.27574301	    -33.96012183	     -0.96590984	    116.43073633	     88.08088669	      0.00000000	      0.00000000
      4.29000000	    -45.55525122	     -9.33820187	      2.47286000	     -0.42227962	      0.61512863	     -0.88238010	    102.88778787	    -22.51029252	    -11.10158473	     91.54062849	      1.59768537	     30.33444238	      0.00000000	      0.00000000	    112.71901816	    -18.63133757	     10.38350214	     90.25859014	      1.57530958	     27.82904685	      0.00000000	      0.00000000	    -10.00191815	      9.30171533	     -8.50914247	    -33.66944175	    -42.75070423	      9.50869595	    119.16321793	     87.81928775	      0.00000000	      0.00000000	    -49.04318085	    -34.09200680	     -0.71715790	    116.35284148	     88.12913997	      0.00000000	      0.00000000
      4.29500000	    -45.57488190	     -9.45704520	      2.52729634	     -0.42233626	      0.61509790	     -0.88248325	    102.84358474	    -22.58202624	    -11.22448614	     91.52819845	      1.59746842	     30.34478566	      0.00000000	      0.00000000	    112.78114769	    -18.50668587	     10.51352000	     90.22937618	      1.57479970	     27.77938793	      0.00000000	      0.00000000	     -9.96746917	      9.43951364	     -8.55173577	    -33.68903634	    -42.76884429	      9.45204601	    119.17621258	     87.90012569	      0.00000000	      0.00000000	    -49.03707261	    -34.07575550	     -0.70571285	    116.37750815	     88.06866210	      0.00000000	      0.00000000
      4.30000000	    -45.56855442	     -9.45414544	      2.48703972	     -0.42228625	      0.61514580	     -0.88242041	    102.82984902	    -22.52556447	    -11.20877861	     91.51695615	      1.59727221	     30.29966232	      0.00000000	      0.00000000	    112.78140214	    -18.54709666	     10.52861381	     90.25738472	      1.57528854	     27.78738890	      0.00000000	      0.00000000	     -9.98323470	      9.43081442	     -8.49059230	    -33.72914205	    -42.71799751	      9.41062105	    119.18740136	     87.92399476	      0.00000000	      0.00000000	    -49.01753581	    -34.09446107	     -0.67280465	    116.35010267	     88.05157311	      0.00000000	      0.00000000
      4.30500000	    -45.59903704	     -9.41730901	      2.49400437	     -0.42239453	      0.61511051	     -0.88248519	    102.89359055	    -22.52950839	    -11.15685121	     91.51487197	      1.59723583	     30.29422606	      0.00000000	      0.00000000	    112.77986688	    -18.52366935	     10.48837628	     90.22486136	      1.57472090	     27.86453111	      0.00000000	      0.00000000	     -9.95220707	      9.39438062	     -8.45724354	    -33.83588394	    -42.65059327	      9.28563620	    119.21260975	     87.92904839	      0.00000000	      0.00000000	    -48.96556787	    -34.16604705	     -0.62629209	    116.38379078	     88.05663606	      0.00000000	      0.00000000
      4.31000000	    -45.59696124	     -9.50054267	      2.50689829	     -0.42234581	      0.61516373	     -0.88251746	    102.83506730	    -22.54040015	    -11.24686296	     91.49988029	      1.59697418	     30.37948666	      0.00000000	      0.00000000	    112.81099017	    -18.48798772	     10.56393963	     90.21509429	      1.57455043	     27.81627714	      0.00000000	      0.00000000	     -9.94383803	      9.48953700	     -8.48277726	    -33.77836978	    -42.68225885	      9.34109560	    119.19378681	     87.90313659	      0.00000000	      0.00000000	    -48.91949413	    -34.11428897	     -0.65390094	    116.33106280	     88.06913438	      0.00000000	      0.00000000
      4.31500000	    -45.65651653	     -9.48429215	      2.52939374	     -0.42254551	      0.61509191	     -0.88262266	    102.92548038	    -22.55849689	    -11.19377949	     91.48828377	      1.59677178	     30.33296533	      0.00000000	      0.00000000	    112.84048325	    -18.42105294	     10.55815504	     90.17015194	      1.57376604	     27.86333842	      0.00000000	      0.00000000	     -9.87431962	      9.47478001	     -8.51975973	    -33.75512108	    -42.70334609	      9.38120494	    119.21460366	     87.88194305	      0.00000000	      0.00000000	    -48.91648114	    -34.16205207	     -0.59224431	    116.35634298	     88.09554172	      0.00000000	      0.00000000
      4.32000000	    -45.75139564	     -9.54168944	      2.54445676	     -0.42278717	      0.61499189	     -0.88266890	    103.00782368	    -22.57446245	    -11.22066276	     91.46040332	      1.59628517	     30.27763073	      0.00000000	      0.00000000	    112.96019853	    -18.34272228	     10.62118657	     90.15035820	      1.57342057	     27.80214068	      0.00000000	      0.00000000	     -9.77894973	      9.56647861	     -8.30822516	    -34.27380773	    -42.45348543	      8.82641593	    119.33916590	     87.95970806	      0.00000000	      0.00000000	    -48.66946029	    -34.37225528	     -0.36614298	    116.33683624	     88.03366118	      0.00000000	      0.00000000
      4.32500000	    -45.69528018	     -9.56830864	      2.67943296	     -0.42264884	      0.61503366	     -0.88308987	    102.93737304	    -22.75583402	    -11.22199499	     91.49142758	      1.59682665	     30.26680172	      0.00000000	      0.00000000	    112.88559972	    -18.18193777	     10.59863428	     90.14904905	      1.57339772	     27.81836268	      0.00000000	      0.00000000	     -9.81051386	      9.63060404	     -8.49649079	    -34.15520890	    -42.52950808	      8.93584997	    119.28989579	     87.94353346	      0.00000000	      0.00000000	    -48.69028042	    -34.25343743	     -0.40748097	    116.32369924	     88.04030481	      0.00000000	      0.00000000
